<svg width="60" height="60" viewBox="0 0 60 60" fill="none" xmlns="http://www.w3.org/2000/svg">
<path d="M58.8091 18.1564C58.0858 17.1996 57.1721 16.5139 56.2017 15.9525L56.123 15.9048L56.0387 15.8685C55.9911 15.8474 54.4366 15.1447 52.1844 14.4361C49.9285 13.7314 46.9843 13.0057 44.0491 13C37.0016 13.0116 31.7356 15.5343 29.9997 16.4777C28.2657 15.5343 22.9979 13.0116 15.9485 13.0001C13.0152 13.0059 10.0709 13.7315 7.81506 14.4362C5.56287 15.1448 4.00653 15.8476 3.96071 15.8686L3.8747 15.9049L3.79407 15.9527C2.82729 16.5142 1.91359 17.1997 1.19032 18.1565C0.465297 19.1055 -0.0108283 20.3756 0.000187161 21.7353V54.2028C0.000187161 55.6925 0.68502 57.0903 1.8386 57.9631C2.61132 58.5475 3.52677 58.8492 4.45699 58.8492C4.92023 58.8492 5.38721 58.7729 5.8358 58.622L5.9292 58.5895L6.01896 58.5475L6.02447 58.5455C6.13439 58.4939 7.46737 57.8943 9.35512 57.3175C11.2392 56.7389 13.6855 56.1927 15.9487 56.1965C19.4515 56.1945 22.6026 57.0005 24.8603 57.8102C25.9882 58.2151 26.8928 58.6199 27.5061 58.9179C27.8101 59.0669 28.0445 59.1891 28.1946 59.2713L28.3594 59.361L28.396 59.382H28.3997V59.384L28.5754 59.4871L28.7659 59.5502C29.0039 59.6285 29.2493 59.6667 29.4891 59.6667C29.663 59.6667 29.8316 59.6399 30 59.6018C30.1666 59.64 30.3369 59.6667 30.509 59.6667C30.7508 59.6667 30.996 59.6284 31.2323 59.5502L31.4246 59.4871L31.5967 59.3859C31.6205 59.3592 37.1558 56.1795 44.0496 56.1966C46.3878 56.1928 48.9183 56.7752 50.8262 57.373C51.7819 57.671 52.584 57.9708 53.1406 58.1942C53.4189 58.3031 53.635 58.3948 53.7779 58.4578L53.939 58.5284L53.9757 58.5456L53.9793 58.5476L54.0708 58.5896L54.1642 58.6221C54.6147 58.773 55.0815 58.8494 55.543 58.8494C56.4695 58.8494 57.3887 58.5476 58.1595 57.9632H58.1614C59.3131 57.0904 59.9998 55.6926 59.9998 54.2029V21.7353C60.0103 20.3756 59.5341 19.1055 58.8091 18.1564ZM28.0991 54.8596C25.6199 53.7691 21.2291 52.2433 15.9483 52.2318C13.0333 52.2356 10.2117 52.9136 8.08225 53.5743C6.31345 54.1281 5.04093 54.6724 4.6289 54.8539L4.45676 54.8844C4.31754 54.8844 4.18571 54.8386 4.07227 54.7545C3.90013 54.6246 3.80122 54.4222 3.80122 54.2026V21.7353C3.81224 21.2521 3.91477 20.979 4.18571 20.6009C4.44574 20.2476 4.91812 19.8466 5.57002 19.4627C5.92158 19.3099 7.28574 18.7331 9.10387 18.1736C11.1217 17.5472 13.7034 16.9609 15.9482 16.9647C19.6835 16.9647 22.9025 17.7954 25.1693 18.6262C26.3046 19.0425 27.1982 19.4569 27.7987 19.7605C27.914 19.8179 28.0057 19.8675 28.0991 19.9153V54.8596ZM56.1981 54.2027C56.1981 54.4204 56.0992 54.6247 55.927 54.7546C55.8135 54.8406 55.6817 54.8846 55.5426 54.8846L55.3704 54.854C54.9584 54.6726 53.6859 54.1282 51.9171 53.5744C49.7857 52.9137 46.966 52.2357 44.0491 52.232C38.7702 52.2434 34.3794 53.7693 31.9002 54.8598V19.9133C33.4603 19.0903 38.1019 16.9551 44.0491 16.9647C46.369 16.9589 49.0423 17.5853 51.0894 18.2327C52.1129 18.5555 52.9864 18.8782 53.5942 19.1189C53.8982 19.2391 54.1362 19.3385 54.2973 19.4054L54.4273 19.4627C55.081 19.8446 55.5533 20.2476 55.8152 20.6009C56.0844 20.9791 56.187 21.2521 56.198 21.7353V54.2027H56.1981Z" fill="#E8244D"/>
</svg>
