<svg width="25" height="23" viewBox="0 0 25 23" fill="none" xmlns="http://www.w3.org/2000/svg">
<g clip-path="url(#clip0_615_3304)">
<path d="M5.27361 0L5.32347 0.25473L6.34862 5.41388H24.5L24.4169 5.79862L21.894 17.5534L21.84 17.8028H7.42985L7.37999 17.5481L4.1685 1.37408H0.5V0H5.27361ZM22.8226 6.78796H19.582L19.2039 11.4831H21.8151L22.8226 6.78796H22.8226ZM20.7526 16.4287L21.5201 12.8572H19.0938L18.8061 16.4287H20.7526H20.7526ZM15.3152 16.4287H17.4517L17.7394 12.8572H15.3152V16.4287ZM15.3152 11.4831H17.8495L18.2276 6.78796H15.3152V11.4831H15.3152ZM11.8275 16.4287H13.965V12.8572H11.5398L11.8275 16.4287ZM11.4297 11.4831H13.965V6.78796H11.0526L11.4297 11.4831H11.4297ZM8.53496 16.4287H10.4731L10.1854 12.8572H7.82557L8.53496 16.4287ZM7.55344 11.4831H10.0753L9.69721 6.78796H6.62074L7.55344 11.4831Z" fill="#919191"/>
<path d="M19.2268 18.2285C20.5189 18.2285 21.571 19.2982 21.571 20.6141C21.571 21.9301 20.5189 23.0008 19.2268 23.0008C17.9337 23.0008 16.8815 21.9301 16.8815 20.6141C16.8815 19.2982 17.9337 18.2285 19.2268 18.2285ZM19.2268 21.6267C19.7752 21.6267 20.2208 21.1722 20.2208 20.6141C20.2208 20.056 19.7752 19.6026 19.2268 19.6026C18.6784 19.6026 18.2318 20.056 18.2318 20.6141C18.2318 21.1722 18.6784 21.6267 19.2268 21.6267Z" fill="#919191"/>
<path d="M10.0524 18.2285C11.3455 18.2285 12.3977 19.2982 12.3977 20.6141C12.3977 21.9301 11.3455 23.0008 10.0524 23.0008C8.76035 23.0008 7.7082 21.9301 7.7082 20.6141C7.7082 19.2982 8.76035 18.2285 10.0524 18.2285ZM10.0524 21.6267C10.6008 21.6267 11.0474 21.1722 11.0474 20.6141C11.0474 20.056 10.6008 19.6026 10.0524 19.6026C9.50506 19.6026 9.05844 20.056 9.05844 20.6141C9.05844 21.1722 9.50506 21.6267 10.0524 21.6267Z" fill="#919191"/>
</g>
<defs>
<clipPath id="clip0_615_3304">
<rect width="24" height="23" fill="white" transform="matrix(-1 0 0 1 24.5 0)"/>
</clipPath>
</defs>
</svg>
