<svg width="26" height="30" viewBox="0 0 26 30" fill="none" xmlns="http://www.w3.org/2000/svg">
<path d="M22.2 3.65883C19.9429 1.39981 16.8141 -0.000878493 13.3672 4.13382e-07C9.9203 -0.000878493 6.79157 1.39981 4.53442 3.65883C2.2754 5.91645 0.875122 9.04523 0.875122 12.4916V30H25.8593V29.0167V12.4916C25.8593 9.04523 24.459 5.91645 22.2 3.65883ZM25.0001 29L2.00012 29.0167V12.4916C2.00012 9.5826 3.09418 6.40775 5.00012 4.5C6.90793 2.594 10.5911 1.00094 13.5001 1C16.4092 1.00094 19.5923 2.594 21.5001 4.5C23.407 6.40775 25.0001 9.5826 25.0001 12.4916V29Z" fill="white"/>
<path d="M7.00112 15C6.1741 14.9995 5.42032 15.3369 4.87942 15.8788C4.33761 16.4192 4.00012 17.1739 4.00012 18C4.00012 18.826 4.33761 19.5802 4.87942 20.1211C5.42026 20.6629 6.17404 20.9999 7.00112 20.9999C7.8262 20.9999 8.58095 20.6629 9.12179 20.1211C9.66361 19.5802 10.001 18.826 10.0001 18C10.0011 17.1739 9.66367 16.4192 9.12179 15.8788C8.58095 15.3369 7.8262 14.9995 7.00112 15Z" fill="white"/>
<circle cx="7.00012" cy="18" r="2" fill="#E8244D"/>
</svg>
