<svg width="60" height="60" viewBox="0 0 60 60" fill="none" xmlns="http://www.w3.org/2000/svg">
<path d="M30 30C34.1421 30 37.5 26.6421 37.5 22.5C37.5 18.3579 34.1421 15 30 15C25.8579 15 22.5 18.3579 22.5 22.5C22.5 26.6421 25.8579 30 30 30Z" stroke="#E8244D" stroke-width="3" stroke-miterlimit="10"/>
<path d="M11.25 56.25V49.2188C11.25 46.1107 12.661 43.13 15.1727 40.9323C17.6843 38.7347 21.0909 37.5 24.6429 37.5H35.3571C38.9091 37.5 42.3157 38.7347 44.8273 40.9323C47.339 43.13 48.75 46.1107 48.75 49.2188V56.25" stroke="#E8244D" stroke-width="3" stroke-miterlimit="10" stroke-linecap="round"/>
<rect width="60" height="60" rx="1" stroke="#E8244D" stroke-width="6" mask="url(#path-1-inside-1_223_2541)"/>
</svg>
