<svg width="161" height="22" viewBox="0 0 161 22" fill="none" xmlns="http://www.w3.org/2000/svg">
<path d="M12.3795 9.07379V15.0228C12.1587 15.3153 11.8134 15.6363 11.3434 15.9858C10.8805 16.3282 10.2646 16.6242 9.49554 16.8739C8.7265 17.1236 7.76876 17.2484 6.62231 17.2484C5.64677 17.2484 4.75311 17.0843 3.94135 16.7562C3.12958 16.4209 2.42818 15.9323 1.83716 15.2903C1.25326 14.6484 0.801086 13.8673 0.480652 12.9471C0.160217 12.0198 0 10.9641 0 9.77998V8.6993C0 7.52233 0.145976 6.47376 0.437927 5.55358C0.737 4.62627 1.16425 3.84163 1.71967 3.19964C2.27509 2.55766 2.94444 2.07261 3.72772 1.74448C4.51813 1.40922 5.41178 1.24159 6.40869 1.24159C7.68331 1.24159 8.73718 1.45559 9.57031 1.88358C10.4106 2.30443 11.0586 2.88935 11.5143 3.63833C11.97 4.38731 12.2584 5.24329 12.3795 6.20627H9.75189C9.66644 5.66415 9.4991 5.17909 9.24988 4.7511C9.00777 4.32311 8.65885 3.98786 8.20312 3.74533C7.75452 3.49567 7.17061 3.37084 6.45142 3.37084C5.83191 3.37084 5.28717 3.48854 4.8172 3.72393C4.34723 3.95932 3.95559 4.30528 3.64227 4.7618C3.33608 5.21833 3.10466 5.77471 2.948 6.43096C2.79134 7.08721 2.71301 7.83619 2.71301 8.6779V9.77998C2.71301 10.636 2.80202 11.3956 2.98004 12.059C3.16518 12.7224 3.42865 13.2824 3.77045 13.7389C4.11936 14.1954 4.54305 14.5414 5.0415 14.7767C5.53996 15.005 6.1025 15.1191 6.72913 15.1191C7.34151 15.1191 7.84353 15.0692 8.23517 14.9693C8.62681 14.8623 8.93656 14.7375 9.16443 14.5949C9.39941 14.4451 9.58099 14.3024 9.70917 14.1669V11.0746H6.47278V9.07379H12.3795Z" fill="#757575"/>
<path d="M14.6011 11.3742V11.1281C14.6011 10.2936 14.7222 9.51962 14.9643 8.8063C15.2064 8.08585 15.5553 7.4617 16.011 6.93385C16.4739 6.39886 17.0364 5.98514 17.6987 5.69268C18.368 5.39309 19.1228 5.24329 19.9631 5.24329C20.8104 5.24329 21.5652 5.39309 22.2275 5.69268C22.8968 5.98514 23.4629 6.39886 23.9258 6.93385C24.3886 7.4617 24.7411 8.08585 24.9832 8.8063C25.2253 9.51962 25.3464 10.2936 25.3464 11.1281V11.3742C25.3464 12.2088 25.2253 12.9828 24.9832 13.6961C24.7411 14.4094 24.3886 15.0335 23.9258 15.5685C23.4629 16.0964 22.9004 16.5101 22.2382 16.8097C21.5759 17.1022 20.8247 17.2484 19.9844 17.2484C19.1371 17.2484 18.3787 17.1022 17.7094 16.8097C17.0471 16.5101 16.4846 16.0964 16.0217 15.5685C15.5589 15.0335 15.2064 14.4094 14.9643 13.6961C14.7222 12.9828 14.6011 12.2088 14.6011 11.3742ZM17.1753 11.1281V11.3742C17.1753 11.895 17.2287 12.3871 17.3355 12.8508C17.4423 13.3145 17.6097 13.721 17.8375 14.0706C18.0654 14.4201 18.3573 14.6947 18.7134 14.8944C19.0694 15.0942 19.4931 15.194 19.9844 15.194C20.4615 15.194 20.8745 15.0942 21.2234 14.8944C21.5795 14.6947 21.8714 14.4201 22.0993 14.0706C22.3272 13.721 22.4945 13.3145 22.6013 12.8508C22.7153 12.3871 22.7722 11.895 22.7722 11.3742V11.1281C22.7722 10.6146 22.7153 10.1295 22.6013 9.67298C22.4945 9.20932 22.3236 8.79917 22.0886 8.44251C21.8608 8.08585 21.5688 7.80766 21.2128 7.60793C20.8639 7.40107 20.4473 7.29764 19.9631 7.29764C19.4789 7.29764 19.0587 7.40107 18.7027 7.60793C18.3538 7.80766 18.0654 8.08585 17.8375 8.44251C17.6097 8.79917 17.4423 9.20932 17.3355 9.67298C17.2287 10.1295 17.1753 10.6146 17.1753 11.1281Z" fill="#757575"/>
<path d="M27.0126 11.3742V11.1281C27.0126 10.2936 27.1337 9.51962 27.3758 8.8063C27.6179 8.08585 27.9668 7.4617 28.4225 6.93385C28.8854 6.39886 29.4479 5.98514 30.1102 5.69268C30.7795 5.39309 31.5343 5.24329 32.3746 5.24329C33.2219 5.24329 33.9767 5.39309 34.639 5.69268C35.3083 5.98514 35.8744 6.39886 36.3373 6.93385C36.8001 7.4617 37.1526 8.08585 37.3947 8.8063C37.6368 9.51962 37.7579 10.2936 37.7579 11.1281V11.3742C37.7579 12.2088 37.6368 12.9828 37.3947 13.6961C37.1526 14.4094 36.8001 15.0335 36.3373 15.5685C35.8744 16.0964 35.3119 16.5101 34.6497 16.8097C33.9874 17.1022 33.2362 17.2484 32.3959 17.2484C31.5486 17.2484 30.7902 17.1022 30.1208 16.8097C29.4586 16.5101 28.8961 16.0964 28.4332 15.5685C27.9704 15.0335 27.6179 14.4094 27.3758 13.6961C27.1337 12.9828 27.0126 12.2088 27.0126 11.3742ZM29.5868 11.1281V11.3742C29.5868 11.895 29.6402 12.3871 29.747 12.8508C29.8538 13.3145 30.0212 13.721 30.249 14.0706C30.4769 14.4201 30.7688 14.6947 31.1249 14.8944C31.4809 15.0942 31.9046 15.194 32.3959 15.194C32.873 15.194 33.286 15.0942 33.6349 14.8944C33.991 14.6947 34.2829 14.4201 34.5108 14.0706C34.7387 13.721 34.906 13.3145 35.0128 12.8508C35.1268 12.3871 35.1837 11.895 35.1837 11.3742V11.1281C35.1837 10.6146 35.1268 10.1295 35.0128 9.67298C34.906 9.20932 34.7351 8.79917 34.5001 8.44251C34.2723 8.08585 33.9803 7.80766 33.6243 7.60793C33.2753 7.40107 32.8588 7.29764 32.3746 7.29764C31.8904 7.29764 31.4702 7.40107 31.1142 7.60793C30.7653 7.80766 30.4769 8.08585 30.249 8.44251C30.0212 8.79917 29.8538 9.20932 29.747 9.67298C29.6402 10.1295 29.5868 10.6146 29.5868 11.1281Z" fill="#757575"/>
<path d="M47.3175 5.45729H49.6567V16.7134C49.6567 17.7548 49.4359 18.6393 48.9944 19.3669C48.553 20.0945 47.937 20.6473 47.1466 21.0254C46.3562 21.4106 45.4412 21.6032 44.4016 21.6032C43.9601 21.6032 43.4687 21.539 42.9276 21.4106C42.3935 21.2822 41.8737 21.0753 41.3681 20.79C40.8696 20.5118 40.4531 20.1444 40.1184 19.6879L41.3254 18.1686C41.7384 18.6607 42.1941 19.021 42.6926 19.2492C43.191 19.4775 43.7144 19.5916 44.2627 19.5916C44.8537 19.5916 45.3557 19.4811 45.7687 19.2599C46.1889 19.0459 46.5129 18.7285 46.7407 18.3077C46.9686 17.8868 47.0825 17.3732 47.0825 16.7669V8.07872L47.3175 5.45729ZM39.4669 11.3742V11.1495C39.4669 10.2722 39.5737 9.47325 39.7873 8.7528C40.0009 8.02522 40.3071 7.40107 40.7059 6.88035C41.1046 6.3525 41.5888 5.94947 42.1585 5.67128C42.7282 5.38595 43.3726 5.24329 44.0918 5.24329C44.8395 5.24329 45.4768 5.37882 46.0037 5.64988C46.5378 5.92094 46.9828 6.3097 47.3389 6.81615C47.6949 7.31547 47.9726 7.91466 48.172 8.6137C48.3785 9.30562 48.5316 10.076 48.6313 10.9248V11.6417C48.5387 12.4692 48.3821 13.2253 48.1613 13.9101C47.9406 14.5949 47.6486 15.1869 47.2855 15.6862C46.9223 16.1855 46.4737 16.5707 45.9396 16.8418C45.4127 17.1129 44.7896 17.2484 44.0704 17.2484C43.3655 17.2484 42.7282 17.1022 42.1585 16.8097C41.596 16.5172 41.1118 16.1071 40.7059 15.5792C40.3071 15.0514 40.0009 14.4308 39.7873 13.7175C39.5737 12.997 39.4669 12.2159 39.4669 11.3742ZM42.041 11.1495V11.3742C42.041 11.9021 42.0909 12.3943 42.1906 12.8508C42.2974 13.3073 42.4576 13.7103 42.6712 14.0599C42.8919 14.4023 43.1697 14.6733 43.5043 14.873C43.8461 15.0656 44.2485 15.1619 44.7113 15.1619C45.3166 15.1619 45.8115 15.0335 46.196 14.7767C46.5876 14.52 46.8867 14.174 47.0932 13.7389C47.3068 13.2966 47.4564 12.8044 47.5418 12.2623V10.3257C47.4991 9.90481 47.4101 9.51248 47.2748 9.14869C47.1466 8.7849 46.9721 8.46748 46.7514 8.19642C46.5307 7.91822 46.2529 7.70423 45.9183 7.55443C45.5836 7.3975 45.1884 7.31904 44.7327 7.31904C44.2698 7.31904 43.8675 7.4189 43.5257 7.61863C43.1839 7.81836 42.9026 8.09299 42.6819 8.44251C42.4683 8.79203 42.308 9.19862 42.2012 9.66228C42.0944 10.1259 42.041 10.6217 42.041 11.1495Z" fill="#757575"/>
<path d="M55.0827 0.599609V17.0344H52.4979V0.599609H55.0827Z" fill="#757575"/>
<path d="M62.9974 17.2484C62.1429 17.2484 61.3703 17.1093 60.6796 16.8311C59.996 16.5458 59.4121 16.1499 58.9279 15.6434C58.4508 15.137 58.0841 14.5414 57.8278 13.8566C57.5714 13.1718 57.4432 12.4335 57.4432 11.6417V11.2137C57.4432 10.3078 57.575 9.48752 57.8384 8.7528C58.1019 8.01809 58.4686 7.39037 58.9386 6.86965C59.4086 6.3418 59.964 5.93877 60.6049 5.66058C61.2457 5.38239 61.94 5.24329 62.6877 5.24329C63.5137 5.24329 64.2365 5.38239 64.856 5.66058C65.4755 5.93877 65.9882 6.3311 66.394 6.83755C66.807 7.33687 67.1132 7.93249 67.3126 8.6244C67.5191 9.31632 67.6224 10.0796 67.6224 10.9141V12.0162H58.6929V10.1652H65.0803V9.96187C65.066 9.49822 64.9734 9.06309 64.8026 8.6565C64.6388 8.24991 64.386 7.92179 64.0442 7.67213C63.7024 7.42247 63.2467 7.29764 62.677 7.29764C62.2498 7.29764 61.8688 7.39037 61.5341 7.57583C61.2066 7.75416 60.9324 8.01452 60.7117 8.35691C60.4909 8.6993 60.32 9.11303 60.199 9.59808C60.085 10.076 60.0281 10.6146 60.0281 11.2137V11.6417C60.0281 12.1482 60.0957 12.619 60.231 13.0541C60.3734 13.4821 60.5799 13.8566 60.8505 14.1776C61.1211 14.4986 61.4487 14.7518 61.8332 14.9372C62.2177 15.1156 62.6556 15.2047 63.147 15.2047C63.7665 15.2047 64.3183 15.0799 64.8026 14.8302C65.2868 14.5806 65.7069 14.2275 66.0629 13.771L67.4194 15.087C67.1702 15.4508 66.8462 15.8004 66.4474 16.1356C66.0487 16.4637 65.5609 16.7312 64.9841 16.9381C64.4145 17.145 63.7522 17.2484 62.9974 17.2484Z" fill="#757575"/>
<path d="M69.7872 4.67543L69.956 6.30952C71.981 5.87752 76.7622 5.42674 78.7685 5.20135C77.0435 6.23439 75.2622 8.61978 75.2622 11.5499C75.2622 15.7384 79.2185 17.5979 82.6872 17.7293L83.231 16.1704C80.1747 16.0577 76.7622 14.8932 76.7622 11.2306C76.7622 8.99543 78.3935 6.14048 81.056 5.27648C82.0122 4.99474 83.6622 4.97596 84.731 4.97596V3.47335C83.4747 3.5297 81.7122 3.64239 79.6685 3.81143C76.2185 4.09317 72.6747 4.45004 71.456 4.58152C71.0997 4.61909 70.4997 4.65665 69.7872 4.67543ZM82.031 7.28622L81.0747 7.69943C81.6372 8.46952 82.181 9.44622 82.6122 10.3478L83.5685 9.897C83.1747 9.07056 82.4622 7.90604 82.031 7.28622ZM84.0747 6.49735L83.156 6.92935C83.7372 7.71822 84.281 8.63856 84.731 9.55891L85.706 9.08935C85.2747 8.26291 84.5247 7.11717 84.0747 6.49735Z" fill="#757575"/>
<path d="M89.7935 4.1683C89.831 4.61909 89.831 5.20135 89.831 5.63335V14.8744C89.831 15.5318 89.7935 16.9217 89.7747 17.1659H91.3872C91.3685 17.0156 91.3685 16.5648 91.3497 16.0765H101.587C101.587 16.5836 101.568 17.0344 101.568 17.1659H103.181C103.162 16.9593 103.143 15.4942 103.143 14.8932V5.63335C103.143 5.16378 103.143 4.63787 103.181 4.1683C102.618 4.20587 101.943 4.20587 101.531 4.20587H91.4622C91.031 4.20587 90.5247 4.18709 89.7935 4.1683ZM91.3497 5.6897H101.606V14.6114H91.3497V5.6897Z" fill="#757575"/>
<path d="M120.15 2.0083L119.156 2.4403C119.662 3.13526 120.3 4.281 120.675 5.0323L121.687 4.58152C121.293 3.81143 120.618 2.68448 120.15 2.0083ZM122.212 1.257L121.218 1.689C121.743 2.38396 122.362 3.45456 122.775 4.26222L123.787 3.81143C123.431 3.11648 122.7 1.95196 122.212 1.257ZM115.106 2.90987L113.381 2.32761C113.268 2.81596 112.987 3.49213 112.8 3.83022C111.975 5.50187 110.137 8.24413 106.912 10.1787L108.206 11.1367C110.268 9.7843 111.825 8.11265 112.968 6.51613H119.287C118.912 8.22535 117.75 10.6671 116.306 12.3763C114.6 14.386 112.256 16.0765 108.806 17.0907L110.175 18.3304C113.681 17.0156 115.931 15.3064 117.637 13.2215C119.306 11.1742 120.45 8.63857 120.956 6.74152C121.05 6.441 121.237 6.009 121.387 5.74604L120.15 4.99474C119.85 5.10743 119.437 5.16378 118.931 5.16378H113.85C114 4.90083 114.15 4.63787 114.281 4.37491C114.468 4.03683 114.806 3.39822 115.106 2.90987Z" fill="#757575"/>
<path d="M126.168 10.2539L126.918 11.7189C129.525 10.9113 132.093 9.7843 134.062 8.65735V15.6069C134.062 16.3207 134.006 17.2598 133.95 17.6167H135.787C135.712 17.241 135.675 16.3207 135.675 15.6069V7.68065C137.587 6.40343 139.312 4.97596 140.737 3.49213L139.481 2.32761C138.187 3.88656 136.312 5.52065 134.362 6.74152C132.281 8.0563 129.412 9.37109 126.168 10.2539Z" fill="#757575"/>
<path d="M147.562 3.26674L146.493 4.41248C147.881 5.35161 150.225 7.36135 151.162 8.33804L152.343 7.15474C151.293 6.10291 148.893 4.14952 147.562 3.26674ZM145.95 15.8511L146.943 17.3913C150.075 16.809 152.437 15.6633 154.312 14.48C157.143 12.6956 159.337 10.1412 160.612 7.79335L159.712 6.19683C158.625 8.50709 156.337 11.2869 153.45 13.1088C151.668 14.217 149.231 15.3627 145.95 15.8511Z" fill="#757575"/>
</svg>
