<svg width="29" height="30" viewBox="0 0 29 30" fill="none" xmlns="http://www.w3.org/2000/svg">
<path fill-rule="evenodd" clip-rule="evenodd" d="M28.424 15.3263C28.424 14.3052 28.3324 13.3234 28.1622 12.3809H14.6V17.951H22.3498C22.016 19.751 21.0014 21.2761 19.4764 22.2972V25.9103H24.1302C26.8531 23.4034 28.424 19.7118 28.424 15.3263Z" fill="#4285F4"/>
<path fill-rule="evenodd" clip-rule="evenodd" d="M14.6 29.4003C18.488 29.4003 21.7476 28.1109 24.1302 25.9116L19.4764 22.2985C18.1869 23.1625 16.5375 23.6731 14.6 23.6731C10.8495 23.6731 7.67492 21.14 6.54255 17.7363H1.73164V21.4672C4.1011 26.1734 8.97092 29.4003 14.6 29.4003Z" fill="#34A853"/>
<path fill-rule="evenodd" clip-rule="evenodd" d="M6.54254 17.7361C6.25454 16.8721 6.09091 15.9492 6.09091 15.0001C6.09091 14.051 6.25454 13.1281 6.54254 12.2641V8.5332H1.73163C0.75636 10.4772 0.199997 12.6765 0.199997 15.0001C0.199997 17.3237 0.75636 19.523 1.73163 21.467L6.54254 17.7361Z" fill="#FBBC05"/>
<path fill-rule="evenodd" clip-rule="evenodd" d="M14.6 6.32688C16.7142 6.32688 18.6124 7.05343 20.1047 8.48034L24.2349 4.35015C21.7411 2.02652 18.4815 0.599609 14.6 0.599609C8.97092 0.599609 4.1011 3.82652 1.73164 8.5327L6.54255 12.2636C7.67492 8.85997 10.8495 6.32688 14.6 6.32688Z" fill="#EA4335"/>
</svg>
