<svg width="25" height="25" viewBox="0 0 25 25" fill="none" xmlns="http://www.w3.org/2000/svg">
<g clip-path="url(#clip0_578_1497)">
<path d="M10.5 5.65239C10.5 6.01171 10.2079 6.30478 9.84761 6.30478C7.61843 6.30478 5.80478 8.11844 5.80478 10.3476C5.80478 10.7069 5.51272 11 5.15239 11C4.79307 11 4.5 10.7069 4.5 10.3476C4.5 7.3988 6.8988 5 9.84761 5C10.2079 5 10.5 5.29307 10.5 5.65239Z" fill="#E8244D"/>
<path d="M17.5992 16.1139C18.9961 14.4554 19.762 12.3604 19.762 10.1842C19.762 5.12079 15.6658 1 10.6315 1C5.59617 1 1.5 5.12079 1.5 10.1842C1.5 15.2485 5.59617 19.3683 10.6315 19.3683C12.8641 19.3683 14.9974 18.5535 16.6689 17.0683L23.3522 23.7901L23.5609 24L23.7696 23.7901L24.2913 23.2644L24.5 23.0545L17.5992 16.1139V16.1139ZM10.6315 18.0317C6.32858 18.0317 2.82897 14.5109 2.82897 10.1842C2.82897 5.85743 6.32858 2.33663 10.6315 2.33663C14.9334 2.33663 18.433 5.85743 18.433 10.1842C18.433 14.5109 14.9334 18.0317 10.6315 18.0317Z" fill="#E8244D"/>
</g>
<defs>
<clipPath id="clip0_578_1497">
<rect width="24" height="24" fill="white" transform="translate(0.5 0.5)"/>
</clipPath>
</defs>
</svg>
