<svg width="60" height="60" viewBox="0 0 60 60" fill="none" xmlns="http://www.w3.org/2000/svg">
<path d="M58.4272 44.753L54.8218 39.1701C53.3336 36.8629 51.0174 35.3541 48.504 34.8048C46.5953 34.3837 44.5489 34.5137 42.6458 35.2462C39.7324 35.865 38.1121 33.8875 37.0981 32.3201L34.9513 28.993L45.4381 7.38469C46.852 4.01555 46.2977 1.58578 43.7657 0L30.0009 21.3246L16.2361 0.000117188C13.7023 1.58578 13.1497 4.01567 14.5617 7.38481L25.0485 28.9931L22.9017 32.3202C21.8878 33.8876 20.2674 35.8651 17.3541 35.2463C15.4528 34.5139 13.4064 34.3839 11.4958 34.8049C8.98253 35.3543 6.66629 36.8631 5.178 39.1702L1.57266 44.7531C0.082707 47.0601 -0.31913 49.7645 0.242608 52.2346C0.79887 54.7083 2.3318 56.9862 4.67579 58.451C7.0199 59.9178 9.76764 60.315 12.2772 59.7621C14.7888 59.2128 17.1068 57.7059 18.5951 55.3969L22.2004 49.814C23.6906 47.5087 24.0924 44.8023 23.5306 42.3305C23.3985 41.7464 23.2105 41.1714 22.9687 40.6147C24.6598 37.9946 25.4132 36.9692 26.5369 35.0887C27.6309 33.2557 28.8623 32.2303 30.0009 31.6682C31.1376 32.2303 32.3692 33.2557 33.463 35.0887C34.5868 36.9692 35.3402 37.9946 37.0312 40.6147C36.7912 41.1714 36.6015 41.7463 36.4694 42.3305C35.9075 44.8025 36.3094 47.5088 37.8015 49.814L41.405 55.3969C42.8952 57.7059 45.2113 59.2129 47.7228 59.7621C50.2324 60.3152 52.9802 59.9178 55.3243 58.451C57.6684 56.9862 59.2013 54.7083 59.7575 52.2346C60.3191 49.7645 59.9173 47.0601 58.4272 44.753ZM18.2155 47.322L14.6119 52.9067C13.8102 54.1427 12.5972 54.93 11.2503 55.2285C9.90337 55.5215 8.46533 55.3164 7.20778 54.5309C5.95203 53.7454 5.15205 52.5497 4.84879 51.2258C4.55114 49.8983 4.7614 48.483 5.55757 47.2451L9.16291 41.6604C9.96099 40.4244 11.174 39.6371 12.5227 39.3386C13.8697 39.0456 15.3077 39.2507 16.5653 40.0362C17.821 40.8217 18.621 42.0174 18.9243 43.3431C19.2221 44.6687 19.0137 46.086 18.2155 47.322ZM29.96 28.5682C29.0502 28.5682 28.3154 27.8431 28.3154 26.9495C28.3154 26.056 29.0502 25.3308 29.96 25.3308C30.8678 25.3308 31.6046 26.056 31.6046 26.9495C31.6046 27.8431 30.8678 28.5682 29.96 28.5682ZM55.1511 51.2257C54.8478 52.5496 54.0478 53.7453 52.7921 54.5308C51.5363 55.3163 50.0964 55.5214 48.7495 55.2284C47.4026 54.9299 46.1897 54.1425 45.3897 52.9066L41.7843 47.3219C40.9881 46.0859 40.7797 44.6686 41.0773 43.343C41.3787 42.0173 42.1787 40.8216 43.4363 40.0361C44.6921 39.2506 46.1301 39.0455 47.4789 39.3385C48.8258 39.6369 50.0387 40.4243 50.8387 41.6603L54.4441 47.245C55.2403 48.4828 55.4487 49.8982 55.1511 51.2257Z" fill="#E8244D"/>
</svg>
