<svg width="32" height="30" viewBox="0 0 32 30" fill="none" xmlns="http://www.w3.org/2000/svg">
<path d="M5.77775 0L7.25369 7.26155H32L28.5342 23.0289H9.44003L4.96092 0.992492H1.90735e-06V0H5.77775ZM19.4896 16.3956V22.0364H23.2466L23.7111 16.3956H19.4896ZM23.7928 15.4032L24.3815 8.25405H19.4896V15.4032H23.7928ZM18.4912 16.3956H14.2697L14.7342 22.0364H18.4912V16.3956ZM18.4912 15.4032V8.25405H13.5994L14.188 15.4032H18.4912ZM25.3832 8.25405L24.7946 15.4032H29.1884L30.7599 8.25405H25.3832ZM28.9703 16.3956H24.7129L24.2484 22.0364H27.7304L28.9703 16.3956ZM10.2568 22.0364H13.7324L13.268 16.3956H9.11034L10.2568 22.0364ZM8.90861 15.4032H13.1863L12.5976 8.25405H7.45551L8.90861 15.4032Z" fill="white"/>
<path d="M25.2895 24.4492C26.8291 24.4492 28.0817 25.6943 28.0817 27.2247C28.0817 28.7551 26.8291 30.0001 25.2895 30.0001C23.7499 30.0001 22.4973 28.7551 22.4973 27.2247C22.4973 25.6943 23.7499 24.4492 25.2895 24.4492ZM25.2895 29.0076C26.2785 29.0076 27.0832 28.2078 27.0832 27.2247C27.0832 26.2416 26.2785 25.4417 25.2895 25.4417C24.3004 25.4417 23.4958 26.2416 23.4958 27.2247C23.4958 28.2078 24.3004 29.0076 25.2895 29.0076Z" fill="white"/>
<path d="M12.6915 24.4492C14.2311 24.4492 15.4836 25.6943 15.4836 27.2247C15.4836 28.7551 14.2311 30.0001 12.6915 30.0001C11.1519 30.0001 9.89938 28.7551 9.89938 27.2247C9.89938 25.6943 11.1519 24.4492 12.6915 24.4492ZM12.6915 29.0076C13.6805 29.0076 14.4852 28.2078 14.4852 27.2247C14.4852 26.2416 13.6805 25.4417 12.6915 25.4417C11.7025 25.4417 10.8978 26.2416 10.8978 27.2247C10.8978 28.2078 11.7025 29.0076 12.6915 29.0076Z" fill="white"/>
</svg>
